<svg width="168" height="189" viewBox="0 0 168 189" fill="none" xmlns="http://www.w3.org/2000/svg">
<path fill-rule="evenodd" clip-rule="evenodd" d="M84 134.98C56.0262 134.98 33.4812 112.345 33.4812 84.2589C33.4812 56.1729 56.0262 33.5374 84 33.5374C111.974 33.5374 134.519 56.1729 134.519 84.2589C134.519 95.9932 130.162 106.964 123.488 115.365L142.437 142.965C157.894 127.863 167.092 106.894 167.092 83.8423C167.126 38.12 129.955 0.799316 84 0.799316C38.0455 0.799316 0.908447 38.9532 0.908447 84.6755C0.908447 130.398 38.0801 167.684 84 167.684C94.8576 167.684 105.715 165.184 115.328 161.4L96.379 133.8C92.8866 134.633 88.5989 134.98 84.0346 134.98H84Z" fill="#E2E2E2"/>
<path fill-rule="evenodd" clip-rule="evenodd" d="M115.328 161.4L134.311 189L161.49 170.565L142.472 142.965L115.328 161.4Z" fill="#E2E2E2"/>
</svg>
